# This file uses centimeters as units for non-parametric coordinates.

mtllib simpleframe2.mtl
g default
v -6.448907 0.388602 3.881727
v -3.869345 0.388602 3.881727
v -1.289781 0.388602 3.881727
v 1.289782 0.388602 3.881727
v 3.869345 0.388602 3.881727
v 6.448907 0.388602 3.881727
v -6.448907 0.388602 2.354377
v -3.869345 0.388602 2.354377
v -1.289781 0.388602 2.354377
v 1.289782 0.388602 2.354377
v 3.869345 0.388602 2.354377
v 6.448907 0.388602 2.354377
v -6.448907 0.388602 0.827026
v -3.869345 0.388602 0.827026
v -1.289781 0.388602 0.827026
v 1.289782 0.388602 0.827026
v 3.869345 0.388602 0.827026
v 6.448907 0.388602 0.827026
v -6.448907 0.388602 -0.700325
v -3.869345 0.388602 -0.700325
v -1.289781 0.388602 -0.700325
v 1.289782 0.388602 -0.700325
v 3.869345 0.388602 -0.700325
v 6.448907 0.388602 -0.700325
v -6.448907 0.388602 -2.227675
v -3.869345 0.388602 -2.227675
v -1.289781 0.388602 -2.227675
v 1.289782 0.388602 -2.227675
v 3.869345 0.388602 -2.227675
v 6.448907 0.388602 -2.227675
v -6.448907 0.388602 -3.755026
v -3.869345 0.388602 -3.755026
v -1.289781 0.388602 -3.755026
v 1.289782 0.388602 -3.755026
v 3.869345 0.388602 -3.755026
v 6.448907 0.388602 -3.755026
vt 0.000000 0.000000
vt 0.200000 0.000000
vt 0.400000 0.000000
vt 0.600000 0.000000
vt 0.800000 0.000000
vt 1.000000 0.000000
vt 0.000000 0.200000
vt 0.200000 0.200000
vt 0.400000 0.200000
vt 0.600000 0.200000
vt 0.800000 0.200000
vt 1.000000 0.200000
vt 0.000000 0.400000
vt 0.200000 0.400000
vt 0.400000 0.400000
vt 0.600000 0.400000
vt 0.800000 0.400000
vt 1.000000 0.400000
vt 0.000000 0.600000
vt 0.200000 0.600000
vt 0.400000 0.600000
vt 0.600000 0.600000
vt 0.800000 0.600000
vt 1.000000 0.600000
vt 0.000000 0.800000
vt 0.200000 0.800000
vt 0.400000 0.800000
vt 0.600000 0.800000
vt 0.800000 0.800000
vt 1.000000 0.800000
vt 0.000000 1.000000
vt 0.200000 1.000000
vt 0.400000 1.000000
vt 0.600000 1.000000
vt 0.800000 1.000000
vt 1.000000 1.000000
vn 0.000000 1.000000 0.000000
vn 0.000000 1.000000 0.000000
vn 0.000000 1.000000 0.000000
vn 0.000000 1.000000 0.000000
vn 0.000000 1.000000 0.000000
vn 0.000000 1.000000 0.000000
vn 0.000000 1.000000 0.000000
vn 0.000000 1.000000 0.000000
vn 0.000000 1.000000 0.000000
vn 0.000000 1.000000 0.000000
vn 0.000000 1.000000 0.000000
vn 0.000000 1.000000 0.000000
vn 0.000000 1.000000 0.000000
vn 0.000000 1.000000 0.000000
vn 0.000000 1.000000 0.000000
vn 0.000000 1.000000 0.000000
vn 0.000000 1.000000 0.000000
vn 0.000000 1.000000 0.000000
vn 0.000000 1.000000 0.000000
vn 0.000000 1.000000 0.000000
vn 0.000000 1.000000 0.000000
vn 0.000000 1.000000 0.000000
vn 0.000000 1.000000 0.000000
vn 0.000000 1.000000 0.000000
vn 0.000000 1.000000 0.000000
vn 0.000000 1.000000 0.000000
vn 0.000000 1.000000 0.000000
vn 0.000000 1.000000 0.000000
vn 0.000000 1.000000 0.000000
vn 0.000000 1.000000 0.000000
vn 0.000000 1.000000 0.000000
vn 0.000000 1.000000 0.000000
vn 0.000000 1.000000 0.000000
vn 0.000000 1.000000 0.000000
vn 0.000000 1.000000 0.000000
vn 0.000000 1.000000 0.000000
s 1
g pPlane1
usemtl initialShadingGroup
f 1/1/1 2/2/2 8/8/3 7/7/4
f 2/2/2 3/3/5 9/9/6 8/8/3
f 3/3/5 4/4/7 10/10/8 9/9/6
f 4/4/7 5/5/9 11/11/10 10/10/8
f 5/5/9 6/6/11 12/12/12 11/11/10
f 7/7/4 8/8/3 14/14/13 13/13/14
f 8/8/3 9/9/6 15/15/15 14/14/13
f 9/9/6 10/10/8 16/16/16 15/15/15
f 10/10/8 11/11/10 17/17/17 16/16/16
f 11/11/10 12/12/12 18/18/18 17/17/17
f 13/13/14 14/14/13 20/20/19 19/19/20
f 14/14/13 15/15/15 21/21/21 20/20/19
f 15/15/15 16/16/16 22/22/22 21/21/21
f 16/16/16 17/17/17 23/23/23 22/22/22
f 17/17/17 18/18/18 24/24/24 23/23/23
f 19/19/20 20/20/19 26/26/25 25/25/26
f 20/20/19 21/21/21 27/27/27 26/26/25
f 21/21/21 22/22/22 28/28/28 27/27/27
f 22/22/22 23/23/23 29/29/29 28/28/28
f 23/23/23 24/24/24 30/30/30 29/29/29
f 25/25/26 26/26/25 32/32/31 31/31/32
f 26/26/25 27/27/27 33/33/33 32/32/31
f 27/27/27 28/28/28 34/34/34 33/33/33
f 28/28/28 29/29/29 35/35/35 34/34/34
f 29/29/29 30/30/30 36/36/36 35/35/35
g default
v -5.505634 -0.027815 3.690203
v 5.505634 -0.027815 3.690203
v -5.505634 -0.027815 -3.480034
v 5.505634 -0.027815 -3.480034
v -6.429168 -0.111687 4.291583
v 6.429168 -0.111687 4.291583
v 6.429168 0.583872 4.291583
v -6.429168 0.583872 4.291583
v -6.429168 0.583872 -4.081414
v 6.429168 0.583872 -4.081414
v 6.429168 -0.111687 -4.081414
v -6.429168 -0.111687 -4.081414
v -5.881589 0.180688 3.690203
v 5.881589 0.180688 3.690203
v 5.881589 0.180688 -3.480034
v -5.881589 0.180688 -3.480034
v -6.040575 0.514438 3.793730
v -5.881589 0.340360 3.690203
v 6.028531 0.515554 3.801730
v 5.881589 0.343543 3.690203
v -6.028531 0.515554 -3.591561
v -5.881589 0.343543 -3.480034
v 6.040575 0.514438 -3.583561
v 5.881589 0.340360 -3.480034
v -6.885545 -0.194579 4.588764
v -7.072085 -0.038869 4.710233
v 7.072085 -0.038869 4.710233
v 6.885545 -0.194579 4.588764
v 6.885545 -0.194579 -4.378594
v 7.072085 -0.038869 -4.500064
v -7.072085 -0.038869 -4.500064
v -6.885545 -0.194579 -4.378594
v 6.750659 0.642265 4.500929
v 7.072085 0.373961 4.710233
v -6.750659 0.642265 4.500929
v -7.072085 0.373961 4.710233
v -6.750659 0.642265 -4.290760
v -7.072085 0.373961 -4.500064
v 6.750659 0.642265 -4.290760
v 7.072085 0.373961 -4.500064
vt 0.375000 0.000000
vt 0.625000 0.000000
vt 0.375000 0.750000
vt 0.625000 0.750000
vt 0.375000 1.000000
vt 0.625000 1.000000
vt 0.875000 0.000000
vt 0.125000 0.000000
vt 0.625000 0.750000
vt 0.125000 0.000000
vt 0.125000 0.250000
vt 0.875000 0.250000
vt 0.875000 0.250000
vt 0.375552 0.500000
vt 0.125000 0.033824
vt 0.875000 0.000000
vt 0.625000 0.716175
vt 0.621703 0.743955
vt 0.378297 0.743955
vt 0.375000 0.250000
vt 0.625000 0.500000
vt 0.375000 0.500000
vt 0.624448 0.250000
vt 0.875000 0.250000
vt 0.125000 0.250000
vt 0.625000 0.000000
vt 0.375000 0.000000
vt 0.375000 0.750000
vt 0.375000 0.750000
vt 0.625000 0.750000
vt 0.875000 0.000000
vt 0.625000 0.000000
vt 0.375000 0.000000
vt 0.125000 0.000000
vt 0.625000 0.250000
vt 0.375000 0.250000
vt 0.625000 0.500000
vt 0.625000 0.250000
vt 0.375000 0.500000
vt 0.625000 0.500000
vt 0.375000 0.250000
vt 0.375000 0.500000
vt 0.875000 0.191717
vt 0.125000 0.250000
vt 0.375000 0.558283
vt 0.625000 0.500000
vt 0.375000 0.250000
vt 0.625000 0.250000
vt 0.625000 0.500000
vt 0.375000 0.500000
vt 0.625000 0.250000
vt 0.875000 0.250000
vt 0.125000 0.250000
vt 0.375000 0.250000
vt 0.625000 0.033824
vt 0.375000 0.191717
vt 0.625000 0.558283
vt 0.375000 0.716175
vt 0.875000 0.033824
vt 0.625000 0.191717
vt 0.375000 0.033825
vt 0.125000 0.191717
vn 0.000000 1.000000 0.000000
vn 0.000000 1.000000 0.000000
vn 0.000000 1.000000 0.000000
vn 0.000000 1.000000 0.000000
vn 0.000000 -1.000000 0.000000
vn 0.000000 -1.000000 0.000000
vn 0.000000 -1.000000 0.000000
vn 0.000000 -1.000000 0.000000
vn 0.000000 -0.990414 -0.138129
vn 0.000000 -0.990414 -0.138129
vn -0.072572 -0.990988 -0.112591
vn 0.072572 -0.990988 -0.112591
vn 0.000000 -0.990414 0.138129
vn 0.000000 -0.990414 0.138129
vn 0.072572 -0.990988 0.112591
vn -0.072572 -0.990988 0.112591
vn -0.090444 -0.995902 0.000000
vn -0.090444 -0.995902 0.000000
vn 0.090444 -0.995902 0.000000
vn 0.090444 -0.995902 0.000000
vn 0.749234 0.662305 0.000816
vn 0.749234 0.662305 0.000816
vn 0.749234 0.662305 0.000816
vn 0.749234 0.662305 0.000816
vn 0.000190 0.527793 -0.849373
vn 0.000190 0.527793 -0.849373
vn 0.000190 0.527793 -0.849373
vn 0.000190 0.527793 -0.849373
vn -0.749234 0.662305 -0.000816
vn -0.749234 0.662305 -0.000816
vn -0.749234 0.662305 -0.000816
vn -0.749234 0.662305 -0.000816
vn -0.000190 0.527793 0.849373
vn -0.000190 0.527793 0.849373
vn -0.000190 0.527793 0.849373
vn -0.000190 0.527793 0.849373
vn -0.640816 -0.767695 0.000000
vn -0.640816 -0.767695 0.000000
vn -0.640816 -0.767695 0.000000
vn -0.640816 -0.767695 0.000000
vn 0.000000 -0.615080 0.788465
vn 0.000000 -0.615080 0.788465
vn 0.000000 -0.615080 0.788465
vn 0.000000 -0.615080 0.788465
vn 0.640817 -0.767694 0.000000
vn 0.640816 -0.767694 0.000000
vn 0.640816 -0.767694 0.000000
vn 0.640817 -0.767694 0.000000
vn 0.000000 -0.615082 -0.788463
vn 0.000000 -0.615082 -0.788463
vn 0.000000 -0.615082 -0.788463
vn 0.000000 -0.615082 -0.788463
vn -0.061487 0.994080 -0.089581
vn 0.062327 0.994100 -0.088768
vn 0.068843 0.988927 -0.131467
vn -0.069659 0.988929 -0.131024
vn 0.061487 0.994080 0.089581
vn -0.062327 0.994100 0.088768
vn -0.068843 0.988927 0.131466
vn 0.069659 0.988929 0.131023
vn -0.112625 -0.988314 -0.102714
vn 0.112625 -0.988314 -0.102714
vn 0.112625 -0.988314 0.102714
vn -0.112625 -0.988314 0.102714
vn 0.000000 0.000000 -1.000000
vn 0.000000 0.000000 -1.000000
vn 0.000000 0.000000 -1.000000
vn 0.000000 0.000000 -1.000000
vn -1.000000 0.000000 0.000000
vn -1.000000 0.000000 0.000000
vn -1.000000 0.000000 0.000000
vn -1.000000 0.000000 0.000000
vn 0.000000 0.000000 1.000000
vn 0.000000 0.000000 1.000000
vn 0.000000 0.000000 1.000000
vn 0.000000 0.000000 1.000000
vn 1.000000 0.000000 0.000000
vn 1.000000 0.000000 0.000000
vn 1.000000 0.000000 0.000000
vn 1.000000 0.000000 0.000000
vn 0.640816 0.767694 0.000000
vn 0.640816 0.767694 0.000000
vn 0.640816 0.767694 0.000000
vn 0.640816 0.767694 0.000000
vn 0.000000 0.615081 0.788464
vn 0.000000 0.615081 0.788464
vn 0.000000 0.615081 0.788464
vn 0.000000 0.615081 0.788464
vn -0.640816 0.767694 0.000000
vn -0.640816 0.767694 0.000000
vn -0.640816 0.767694 0.000000
vn -0.640816 0.767694 0.000000
vn 0.000000 0.615081 -0.788464
vn 0.000000 0.615081 -0.788464
vn 0.000000 0.615081 -0.788464
vn 0.000000 0.615081 -0.788464
vn 0.112625 0.988314 -0.102714
vn -0.112625 0.988314 -0.102714
vn -0.112625 0.988315 0.102714
vn 0.112625 0.988315 0.102714
vn 0.000000 0.000000 1.000000
vn 0.000000 0.000000 1.000000
vn 0.000000 0.000000 1.000000
vn 0.000000 0.000000 1.000000
vn 0.000000 0.000000 -1.000000
vn 0.000000 0.000000 -1.000000
vn 0.000000 0.000000 -1.000000
vn 0.000000 0.000000 -1.000000
vn 1.000000 0.000000 0.000000
vn 1.000000 0.000000 0.000000
vn 1.000000 0.000000 0.000000
vn 1.000000 0.000000 0.000000
vn -1.000000 0.000000 0.000000
vn -1.000000 0.000000 0.000000
vn -1.000000 0.000000 0.000000
vn -1.000000 0.000000 0.000000
s off
g pCube1
usemtl initialShadingGroup
f 49/72/37 50/74/38 51/76/39 52/78/40
f 39/39/41 40/40/42 38/42/43 37/41/44
s 1
f 37/37/45 38/38/46 42/62/47 41/69/48
f 40/40/49 39/39/50 48/64/51 47/45/52
f 38/38/53 40/43/54 47/67/52 42/62/47
f 39/44/55 37/37/56 41/69/48 48/46/51
s off
f 53/56/57 54/77/58 58/47/59 57/61/60
f 54/77/61 53/56/62 55/59/63 56/71/64
f 56/71/65 55/59/66 59/48/67 60/49/68
f 57/50/69 58/75/70 60/73/71 59/57/72
f 61/63/73 62/97/74 67/51/75 68/70/76
f 62/97/77 61/63/78 64/68/79 63/91/80
f 63/91/81 64/68/82 65/52/83 66/95/84
f 66/53/85 65/54/86 68/55/87 67/94/88
s 5
f 55/59/89 53/56/90 44/83/91 43/87/92
f 57/50/93 59/57/94 46/85/95 45/58/96
f 59/48/94 55/59/89 43/87/92 46/60/95
f 53/56/90 57/61/93 45/89/96 44/83/91
s 1
f 41/69/48 42/62/47 64/68/97 61/63/98
f 47/45/52 48/64/51 68/65/99 65/66/100
f 42/62/47 47/67/52 65/52/100 64/68/97
f 48/46/51 41/69/48 61/63/98 68/70/99
s off
f 54/77/101 56/71/102 50/74/103 49/72/104
f 56/71/105 60/73/106 51/76/107 50/74/108
f 60/73/109 58/75/110 52/78/111 51/76/112
f 58/75/113 54/77/114 49/72/115 52/78/116
f 69/84/117 70/96/118 76/79/119 75/88/120
f 70/96/121 69/84/122 71/90/123 72/92/124
f 72/92/125 71/90/126 73/80/127 74/98/128
f 74/81/129 73/86/130 75/82/131 76/93/132
s 5
f 43/87/92 44/83/91 71/90/133 69/84/134
f 45/58/96 46/85/95 75/82/135 73/86/136
f 46/60/95 43/87/92 69/84/134 75/88/135
f 44/83/91 45/89/96 73/80/136 71/90/133
s off
f 62/97/137 63/91/138 70/96/139 72/92/140
f 74/81/141 76/93/142 66/53/143 67/94/144
f 63/91/145 66/95/146 76/79/147 70/96/148
f 67/51/149 62/97/150 72/92/151 74/98/152
