# This file uses centimeters as units for non-parametric coordinates.

mtllib Trashcan.mtl
g default
v -0.500000 -0.054757 0.000000
v 0.000000 -0.054757 0.500000
v -0.250025 -0.054757 0.433019
v -0.433019 -0.054757 0.250025
v -0.500000 0.032865 0.000000
v -0.433019 0.032865 0.250025
v -0.250025 0.032865 0.433019
v 0.000000 0.032865 0.500000
v 0.500000 -0.054757 0.000000
v 0.433019 -0.054757 0.250025
v 0.250025 -0.054757 0.433019
v 0.500000 0.032865 0.000000
v 0.250025 0.032865 0.433019
v 0.433019 0.032865 0.250025
v -0.250025 0.032865 -0.433019
v -0.433019 0.032865 -0.250025
v 0.000000 0.032865 -0.500000
v -0.433019 -0.054757 -0.250025
v -0.250025 -0.054757 -0.433019
v 0.000000 -0.054757 -0.500000
v 0.433019 0.032865 -0.250025
v 0.250025 0.032865 -0.433019
v 0.250025 -0.054757 -0.433019
v 0.433019 -0.054757 -0.250025
v 0.310794 1.411675 -0.538266
v 0.538266 1.411675 -0.310794
v 0.000000 1.411675 -0.621527
v -0.310794 1.411675 -0.538266
v -0.538266 1.411675 -0.310794
v -0.621527 1.411675 0.000000
v -0.538266 1.411675 0.310794
v -0.310794 1.411675 0.538266
v 0.000000 1.411675 0.621527
v 0.310794 1.411675 0.538266
v 0.538266 1.411675 0.310794
v 0.621527 1.411675 0.000000
v 0.275721 1.411675 -0.477523
v 0.477523 1.411675 -0.275721
v 0.000000 1.411675 -0.551387
v -0.275721 1.411675 -0.477523
v -0.477523 1.411675 -0.275721
v -0.551387 1.411675 0.000000
v -0.477523 1.411675 0.275721
v -0.275721 1.411675 0.477523
v 0.000000 1.411675 0.551387
v 0.275721 1.411675 0.477523
v 0.477523 1.411675 0.275721
v 0.551387 1.411675 0.000000
v 0.218553 0.036083 -0.378514
v 0.378514 0.036083 -0.218553
v 0.000000 0.036083 -0.437063
v -0.218553 0.036083 -0.378514
v -0.378514 0.036083 -0.218553
v -0.437063 0.036083 0.000000
v -0.378514 0.036083 0.218553
v -0.218553 0.036083 0.378514
v 0.000000 0.036083 0.437063
v 0.218553 0.036083 0.378514
v 0.378514 0.036083 0.218553
v 0.437063 0.036083 0.000000
vt 0.500000 0.000000
vt 0.250000 0.000000
vt 0.250000 0.250000
vt 0.750000 0.000000
vt 0.750000 0.250000
vt 0.500000 0.250000
vt 0.500000 0.750000
vt 0.500000 0.500000
vt 0.375000 0.375000
vt 0.625000 0.375000
vt 0.625000 0.875000
vt 0.500000 1.000000
vt 0.375000 0.875000
vt -0.000000 -0.000000
vt 0.416662 -0.000000
vt -0.000000 -0.000000
vt 0.333338 -0.000000
vt 0.375000 0.250000
vt 0.437494 0.250000
vt -0.000000 -0.000000
vt 0.666663 -0.000000
vt -0.000000 -0.000000
vt 0.583337 -0.000000
vt 0.562506 0.250000
vt 0.625000 0.250000
vt 0.437494 0.500000
vt 0.375000 0.500000
vt 0.125000 0.250000
vt 0.375000 0.750000
vt 0.125000 0.000000
vt 0.437494 0.750000
vt 0.625000 0.500000
vt 0.875000 0.250000
vt 0.562506 0.500000
vt 0.562506 0.750000
vt 0.875000 0.000000
vt 0.625000 0.750000
vt 0.625000 0.500000
vt 0.562506 0.500000
vt 0.500000 0.500000
vt 0.437494 0.500000
vt 0.375000 0.500000
vt 0.375000 0.375000
vt 0.375000 0.250000
vt 0.437494 0.250000
vt 0.500000 0.250000
vt 0.562506 0.250000
vt 0.625000 0.250000
vt 0.625000 0.375000
vt 0.625000 0.500000
vt 0.562506 0.500000
vt 0.500000 0.500000
vt 0.437494 0.500000
vt 0.375000 0.500000
vt 0.375000 0.375000
vt 0.375000 0.250000
vt 0.437494 0.250000
vt 0.500000 0.250000
vt 0.562506 0.250000
vt 0.625000 0.250000
vt 0.625000 0.375000
vt 0.625000 0.500000
vt 0.562506 0.500000
vt 0.500000 0.500000
vt 0.437494 0.500000
vt 0.375000 0.500000
vt 0.375000 0.375000
vt 0.375000 0.250000
vt 0.437494 0.250000
vt 0.500000 0.250000
vt 0.562506 0.250000
vt 0.625000 0.250000
vt 0.625000 0.375000
vn -1.000000 0.000000 0.000000
vn -0.866050 0.000000 0.499957
vn -0.863049 -0.083190 0.498223
vn -0.996534 -0.083187 -0.000000
vn -0.499957 0.000000 0.866050
vn -0.498223 -0.083190 0.863049
vn 0.000000 0.000000 1.000000
vn 0.000000 -0.083187 0.996534
vn 0.499957 0.000000 0.866050
vn 0.498223 -0.083190 0.863049
vn 0.866050 0.000000 0.499957
vn 0.863049 -0.083190 0.498223
vn 1.000000 0.000000 0.000000
vn 0.996534 -0.083187 0.000000
vn -0.863049 -0.083190 -0.498223
vn -0.866050 0.000000 -0.499957
vn -0.498223 -0.083190 -0.863049
vn -0.499957 0.000000 -0.866050
vn -0.000000 -0.083187 -0.996534
vn 0.000000 0.000000 -1.000000
vn 0.498223 -0.083190 -0.863049
vn 0.499957 0.000000 -0.866050
vn 0.863049 -0.083190 -0.498223
vn 0.866050 0.000000 -0.499957
vn 0.000000 1.000000 -0.000000
vn 0.000000 1.000000 -0.000000
vn 0.000000 1.000000 0.000000
vn 0.000000 1.000000 0.000000
vn 0.000000 -1.000000 0.000000
vn 0.000000 -1.000000 0.000000
vn 0.000000 -1.000000 0.000000
vn 0.000000 -1.000000 0.000000
vn 0.000000 -1.000000 0.000000
vn 0.000000 -1.000000 0.000000
vn 0.000000 -1.000000 -0.000000
vn 0.000000 -1.000000 -0.000000
vn 0.000000 -1.000000 -0.000000
vn 0.000000 -1.000000 -0.000000
vn 0.000000 -1.000000 0.000000
vn 0.000000 -1.000000 0.000000
vn 0.704558 -0.084833 -0.704558
vn 0.704558 -0.084833 -0.704558
vn -0.000000 -0.087798 -0.996138
vn 0.257838 -0.084830 -0.962457
vn -0.257838 -0.084830 -0.962457
vn -0.704558 -0.084833 -0.704558
vn -0.704558 -0.084833 -0.704558
vn -0.996138 -0.087798 -0.000000
vn -0.962457 -0.084830 -0.257838
vn -0.962457 -0.084830 0.257838
vn -0.704558 -0.084833 0.704558
vn -0.704558 -0.084833 0.704558
vn 0.000000 -0.087798 0.996138
vn -0.257838 -0.084830 0.962457
vn 0.257838 -0.084830 0.962457
vn 0.704558 -0.084833 0.704558
vn 0.704558 -0.084833 0.704558
vn 0.996138 -0.087798 0.000000
vn 0.962457 -0.084830 0.257838
vn 0.962457 -0.084830 -0.257838
vn 0.000000 1.000000 0.000000
vn 0.000000 1.000000 0.000000
vn 0.000000 1.000000 0.000000
vn 0.000000 1.000000 0.000000
vn 0.000000 1.000000 0.000001
vn 0.000000 1.000000 0.000001
vn 0.000000 1.000000 0.000001
vn 0.000000 1.000000 0.000001
vn 0.000000 1.000000 0.000000
vn 0.000000 1.000000 0.000000
vn 0.000000 1.000000 0.000000
vn 0.000000 1.000000 0.000000
vn 0.000000 1.000000 -0.000001
vn 0.000000 1.000000 -0.000001
vn 0.000000 1.000000 -0.000001
vn 0.000000 1.000000 -0.000001
vn 0.000000 1.000000 0.000000
vn 0.000000 1.000000 0.000000
vn 0.000000 1.000000 0.000000
vn 0.000000 1.000000 0.000000
vn 0.000000 1.000000 0.000000
vn 0.000000 1.000000 0.000000
vn 0.000000 1.000000 0.000000
vn 0.000000 1.000000 0.000000
vn 0.000000 1.000000 0.000000
vn 0.000000 1.000000 0.000000
vn 0.000000 1.000000 0.000000
vn 0.000000 1.000000 0.000000
vn 0.000000 1.000000 -0.000001
vn 0.000000 1.000000 -0.000001
vn 0.000000 1.000000 -0.000001
vn 0.000000 1.000000 -0.000001
vn 0.000000 1.000000 0.000000
vn 0.000000 1.000000 0.000000
vn 0.000000 1.000000 0.000000
vn 0.000000 1.000000 0.000000
vn 0.000000 1.000000 0.000001
vn 0.000000 1.000000 0.000001
vn 0.000000 1.000000 0.000001
vn 0.000000 1.000000 0.000001
vn 0.000000 1.000000 0.000000
vn 0.000000 1.000000 0.000000
vn 0.000000 1.000000 0.000000
vn 0.000000 1.000000 0.000000
vn 0.000000 1.000000 -0.000000
vn 0.000000 1.000000 -0.000000
vn 0.000000 1.000000 -0.000000
vn 0.000000 1.000000 -0.000000
vn -0.704839 0.080023 0.704839
vn -0.704839 0.080023 0.704839
vn -0.704839 0.080023 0.704839
vn -0.704839 0.080023 0.704839
vn -0.257941 0.080021 0.962841
vn 0.000000 0.082824 0.996564
vn 0.000000 0.082824 0.996564
vn -0.257941 0.080021 0.962841
vn 0.257941 0.080021 0.962841
vn 0.257941 0.080021 0.962841
vn 0.704839 0.080023 0.704839
vn 0.704839 0.080023 0.704839
vn 0.704839 0.080023 0.704839
vn 0.704839 0.080023 0.704839
vn 0.962841 0.080021 0.257941
vn 0.996564 0.082823 0.000000
vn 0.996564 0.082824 0.000000
vn 0.962841 0.080021 0.257941
vn 0.962841 0.080021 -0.257941
vn 0.962841 0.080021 -0.257941
vn 0.704839 0.080023 -0.704839
vn 0.704839 0.080023 -0.704839
vn 0.704839 0.080023 -0.704839
vn 0.704839 0.080023 -0.704839
vn 0.257941 0.080021 -0.962841
vn 0.000000 0.082824 -0.996564
vn 0.000000 0.082824 -0.996564
vn 0.257941 0.080021 -0.962841
vn -0.257941 0.080021 -0.962841
vn -0.257941 0.080021 -0.962841
vn -0.704839 0.080023 -0.704839
vn -0.704839 0.080023 -0.704839
vn -0.704839 0.080023 -0.704839
vn -0.704839 0.080023 -0.704839
vn -0.962841 0.080021 -0.257941
vn -0.996564 0.082823 0.000000
vn -0.996564 0.082824 0.000000
vn -0.962841 0.080021 -0.257941
vn -0.962841 0.080021 0.257941
vn -0.962841 0.080021 0.257941
vn 0.000000 1.000000 0.000000
vn 0.000000 1.000000 0.000000
vn 0.000000 1.000000 0.000000
vn 0.000000 1.000000 0.000000
vn 0.000000 1.000000 -0.000000
vn 0.000000 1.000000 -0.000000
vn 0.000000 1.000000 -0.000000
vn 0.000000 1.000000 -0.000000
s 1
g pCube1
usemtl initialShadingGroup
f 1/2/1 4/17/2 6/18/3 5/3/4
f 4/17/2 3/15/5 7/19/6 6/18/3
f 3/15/5 2/1/7 8/6/8 7/19/6
f 2/1/7 11/23/9 13/24/10 8/6/8
f 11/23/9 10/21/11 14/25/12 13/24/10
f 10/21/11 9/4/13 12/5/14 14/25/12
f 5/3/4 16/28/15 18/30/16 1/2/1
f 16/27/15 15/26/17 19/31/18 18/29/16
f 15/26/17 17/8/19 20/7/20 19/31/18
f 17/8/19 22/34/21 23/35/22 20/7/20
f 22/34/21 21/32/23 24/37/24 23/35/22
f 21/33/23 12/5/14 9/4/13 24/36/24
s 2
f 60/73/25 51/64/26 54/67/27 57/70/28
s 3
f 4/16/29 11/22/30 2/12/31 3/14/32
f 9/11/33 10/20/34 11/22/30 24/37/35
f 24/37/35 19/31/36 20/7/37 23/35/38
f 19/31/36 4/16/29 1/13/39 18/29/40
f 24/37/35 11/22/30 4/16/29 19/31/36
s 1
f 21/32/23 22/34/21 25/39/41 26/38/42
f 22/34/21 17/8/19 27/40/43 25/39/44
f 17/8/19 15/26/17 28/41/45 27/40/43
f 15/26/17 16/27/15 29/42/46 28/41/47
f 16/27/15 5/9/4 30/43/48 29/42/49
f 5/9/4 6/18/3 31/44/50 30/43/48
f 6/18/3 7/19/6 32/45/51 31/44/52
f 7/19/6 8/6/8 33/46/53 32/45/54
f 8/6/8 13/24/10 34/47/55 33/46/53
f 13/24/10 14/25/12 35/48/56 34/47/57
f 14/25/12 12/10/14 36/49/58 35/48/59
f 12/10/14 21/32/23 26/38/60 36/49/58
s off
f 26/38/61 25/39/62 37/51/63 38/50/64
f 25/39/65 27/40/66 39/52/67 37/51/68
f 27/40/69 28/41/70 40/53/71 39/52/72
f 28/41/73 29/42/74 41/54/75 40/53/76
f 29/42/77 30/43/78 42/55/79 41/54/80
f 30/43/81 31/44/82 43/56/83 42/55/84
f 31/44/85 32/45/86 44/57/87 43/56/88
f 32/45/89 33/46/90 45/58/91 44/57/92
f 33/46/93 34/47/94 46/59/95 45/58/96
f 34/47/97 35/48/98 47/60/99 46/59/100
f 35/48/101 36/49/102 48/61/103 47/60/104
f 36/49/105 26/38/106 38/50/107 48/61/108
f 38/50/109 37/51/110 49/63/111 50/62/112
s 4
f 37/51/113 39/52/114 51/64/115 49/63/116
f 39/52/114 40/53/117 52/65/118 51/64/115
s off
f 40/53/119 41/54/120 53/66/121 52/65/122
s 5
f 41/54/123 42/55/124 54/67/125 53/66/126
f 42/55/124 43/56/127 55/68/128 54/67/125
s off
f 43/56/129 44/57/130 56/69/131 55/68/132
s 6
f 44/57/133 45/58/134 57/70/135 56/69/136
f 45/58/134 46/59/137 58/71/138 57/70/135
s off
f 46/59/139 47/60/140 59/72/141 58/71/142
s 7
f 47/60/143 48/61/144 60/73/145 59/72/146
f 48/61/144 38/50/147 50/62/148 60/73/145
s 2
f 57/70/28 54/67/27 55/68/149 56/69/150
f 60/73/25 57/70/28 58/71/151 59/72/152
f 50/62/153 49/63/154 51/64/26 60/73/25
f 54/67/27 51/64/26 52/65/155 53/66/156
