# This file uses centimeters as units for non-parametric coordinates.

mtllib party hat.mtl
g default
v 0.951057 0.076084 -0.309017
v 0.809018 0.076084 -0.587786
v 0.587786 0.076084 -0.809017
v 0.309017 0.076084 -0.951057
v 0.000000 0.076084 -1.000000
v -0.309017 0.076084 -0.951057
v -0.587785 0.076084 -0.809017
v -0.809017 0.076084 -0.587785
v -0.951057 0.076084 -0.309017
v -1.000000 0.076084 0.000000
v -0.951057 0.076084 0.309017
v -0.809017 0.076084 0.587785
v -0.587785 0.076084 0.809017
v -0.309017 0.076084 0.951057
v -0.000000 0.076084 1.000000
v 0.309017 0.076084 0.951057
v 0.587785 0.076084 0.809017
v 0.809017 0.076084 0.587785
v 0.951057 0.076084 0.309017
v 1.000000 0.076084 0.000000
v 0.000000 2.887799 0.000000
v 0.398584 1.709423 -0.129508
v 0.335795 1.720754 -0.243969
v 0.240312 1.738247 -0.330762
v 0.123979 1.759725 -0.381569
v 0.000000 1.782742 -0.393019
v -0.119009 1.804949 -0.366272
v -0.222315 1.824338 -0.305991
v -0.301670 1.839353 -0.219176
v -0.351401 1.848914 -0.114177
v -0.368249 1.852389 0.000000
v -0.351183 1.849558 0.114106
v -0.301312 1.840599 0.218916
v -0.221946 1.826102 0.305483
v -0.118773 1.807099 0.365545
v -0.000000 1.785095 0.392182
v 0.123723 1.762057 0.380780
v 0.239881 1.740308 0.330169
v 0.335351 1.722298 0.243646
v 0.398303 1.710251 0.129417
v 0.420400 1.705755 0.000000
v 0.452678 1.549496 -0.147084
v 0.381895 1.560536 -0.277463
v 0.273867 1.577736 -0.376946
v 0.141642 1.599009 -0.435931
v 0.000000 1.621970 -0.450199
v -0.136667 1.644276 -0.420619
v -0.255859 1.663881 -0.352159
v -0.347762 1.679162 -0.252664
v -0.405502 1.688968 -0.131756
v -0.425074 1.692612 0.000000
v -0.405205 1.689848 0.131659
v -0.347273 1.680861 0.252309
v -0.255357 1.666278 0.351469
v -0.136348 1.647184 0.419635
v -0.000000 1.625137 0.449072
v 0.141299 1.602132 0.434874
v 0.273293 1.580482 0.376156
v 0.381305 1.562585 0.277034
v 0.452307 1.550592 0.146964
v 0.477207 1.546029 0.000000
v 0.610581 1.082672 -0.198390
v 0.517003 1.090973 -0.375624
v 0.372912 1.103949 -0.513269
v 0.194269 1.120161 -0.597900
v 0.000000 1.137890 -0.622364
v -0.190402 1.155352 -0.585997
v -0.358917 1.170893 -0.494007
v -0.490488 1.183122 -0.356361
v -0.573940 1.190998 -0.186484
v -0.602453 1.193874 0.000000
v -0.573763 1.191520 0.186427
v -0.490200 1.184124 0.356151
v -0.358625 1.172292 0.493604
v -0.190218 1.157026 0.585430
v -0.000000 1.139686 0.621725
v 0.194078 1.121904 0.597310
v 0.372596 1.105460 0.512834
v 0.516682 1.092086 0.375391
v 0.610381 1.083263 0.198325
v 0.642953 1.079999 0.000000
v 0.667726 0.913727 -0.216957
v 0.566209 0.919957 -0.411375
v 0.409305 0.929860 -0.563360
v 0.213809 0.942372 -0.658037
v 0.000000 0.956193 -0.686986
v -0.210779 0.969941 -0.648712
v -0.398343 0.982296 -0.548272
v -0.545445 0.992121 -0.396289
v -0.639038 0.998541 -0.207636
v -0.671050 1.001000 0.000000
v -0.638785 0.999287 0.207554
v -0.545034 0.993550 0.395990
v -0.397928 0.984283 0.547700
v -0.210519 0.972306 0.647912
v -0.000000 0.958715 0.686088
v 0.213542 0.944805 0.657214
v 0.408866 0.931957 0.562756
v 0.565766 0.921497 0.411053
v 0.667450 0.914542 0.216868
v 0.702755 0.911852 0.000000
v -0.000000 2.895000 -0.220318
v 0.159424 3.010827 -0.098529
v -0.060894 3.082412 -0.098529
v -0.197059 2.895000 -0.098529
v -0.060894 2.707587 -0.098529
v 0.159424 2.779172 -0.098529
v 0.197059 2.895000 0.098529
v 0.060894 3.082413 0.098529
v -0.159424 3.010827 0.098529
v -0.159424 2.779172 0.098529
v 0.060894 2.707587 0.098529
v 0.000000 2.895000 0.220318
v -0.000000 3.110121 -0.000000
v 0.126445 3.069037 0.000000
v -0.204593 2.961477 -0.000000
v -0.126445 3.069037 -0.000000
v -0.126445 2.720962 -0.000000
v -0.204593 2.828523 -0.000000
v 0.126445 2.720962 0.000000
v 0.000000 2.679878 0.000000
v 0.204593 2.961477 0.000000
v 0.204593 2.828523 0.000000
v 0.148045 3.002560 0.113096
v -0.056548 3.069037 0.113096
v -0.182993 2.895000 0.113096
v -0.056548 2.720962 0.113096
v 0.148045 2.787440 0.113096
v 0.034949 3.002560 0.182993
v 0.113096 2.895000 0.182993
v -0.091497 2.961477 0.182993
v -0.091497 2.828523 0.182993
v 0.034949 2.787440 0.182993
v -0.034949 3.002560 -0.182993
v 0.056548 3.069037 -0.113096
v 0.091497 2.961477 -0.182993
v -0.113096 2.895000 -0.182993
v -0.148045 3.002560 -0.113096
v -0.034949 2.787440 -0.182993
v -0.148045 2.787440 -0.113096
v 0.091497 2.828523 -0.182993
v 0.056548 2.720962 -0.113096
v 0.182993 2.895000 -0.113096
v 0.040262 3.018912 -0.170552
v -0.105407 2.971583 -0.170552
v -0.105407 2.818417 -0.170552
v 0.040262 2.771087 -0.170552
v 0.130290 2.895000 -0.170552
v 0.065145 3.095496 -0.040262
v -0.170552 3.018912 -0.040262
v -0.170552 2.771087 -0.040262
v 0.065145 2.694504 -0.040262
v 0.210813 2.895000 -0.040262
v 0.170552 3.018912 0.040262
v -0.065145 3.095496 0.040262
v -0.210813 2.895000 0.040262
v -0.065145 2.694504 0.040262
v 0.170552 2.771087 0.040262
v 0.105407 2.971583 0.170552
v -0.040262 3.018912 0.170552
v -0.130290 2.895000 0.170552
v -0.040262 2.771087 0.170552
v 0.105407 2.818417 0.170552
vt 0.737764 0.172746
vt 0.750000 0.250000
vt 0.737764 0.327254
vt 0.702254 0.396946
vt 0.646946 0.452254
vt 0.577254 0.487764
vt 0.500000 0.500000
vt 0.422746 0.487764
vt 0.353054 0.452254
vt 0.297746 0.396946
vt 0.262236 0.327254
vt 0.250000 0.250000
vt 0.262236 0.172746
vt 0.297746 0.103054
vt 0.353054 0.047746
vt 0.422746 0.012236
vt 0.500000 -0.000000
vt 0.577254 0.012236
vt 0.646946 0.047746
vt 0.702254 0.103054
vt 0.250000 0.500000
vt 0.275000 0.500000
vt 0.500000 1.000000
vt 0.300000 0.500000
vt 0.325000 0.500000
vt 0.350000 0.500000
vt 0.375000 0.500000
vt 0.400000 0.500000
vt 0.425000 0.500000
vt 0.450000 0.500000
vt 0.475000 0.500000
vt 0.500000 0.500000
vt 0.525000 0.500000
vt 0.550000 0.500000
vt 0.575000 0.500000
vt 0.600000 0.500000
vt 0.625000 0.500000
vt 0.650000 0.500000
vt 0.675000 0.500000
vt 0.700000 0.500000
vt 0.725000 0.500000
vt 0.750000 0.500000
vt 0.604774 0.790452
vt 0.395226 0.790452
vt 0.406610 0.792467
vt 0.418231 0.795578
vt 0.429789 0.799397
vt 0.441047 0.803491
vt 0.451860 0.807440
vt 0.462178 0.810887
vt 0.472034 0.813558
vt 0.481526 0.815258
vt 0.490794 0.815876
vt 0.500000 0.815372
vt 0.509311 0.813779
vt 0.518880 0.811201
vt 0.528827 0.807822
vt 0.539218 0.803909
vt 0.550047 0.799812
vt 0.561217 0.795945
vt 0.572540 0.792742
vt 0.583760 0.790600
vt 0.594590 0.789800
vt 0.618993 0.762013
vt 0.381007 0.762013
vt 0.393789 0.763976
vt 0.406814 0.767035
vt 0.419786 0.770818
vt 0.432470 0.774901
vt 0.444717 0.778868
vt 0.456471 0.782354
vt 0.467761 0.785071
vt 0.478682 0.786815
vt 0.489373 0.787463
vt 0.500000 0.786971
vt 0.510731 0.785373
vt 0.521722 0.782780
vt 0.533092 0.779385
vt 0.544907 0.775464
vt 0.557157 0.771373
vt 0.569743 0.767523
vt 0.582481 0.764341
vt 0.595117 0.762208
vt 0.607372 0.761397
vt 0.660500 0.678999
vt 0.339499 0.678999
vt 0.356214 0.680475
vt 0.373113 0.682783
vt 0.389983 0.685666
vt 0.406645 0.688818
vt 0.422981 0.691923
vt 0.438937 0.694687
vt 0.454529 0.696862
vt 0.469826 0.698262
vt 0.484939 0.698774
vt 0.500000 0.698355
vt 0.515148 0.697040
vt 0.530506 0.694936
vt 0.546167 0.692221
vt 0.562173 0.689137
vt 0.578506 0.685976
vt 0.595085 0.683051
vt 0.611764 0.680673
vt 0.628358 0.679104
vt 0.644664 0.678524
vt 0.675522 0.648956
vt 0.324478 0.648956
vt 0.342529 0.650064
vt 0.360730 0.651825
vt 0.378917 0.654050
vt 0.396952 0.656507
vt 0.414738 0.658952
vt 0.432230 0.661149
vt 0.449434 0.662897
vt 0.466404 0.664038
vt 0.483224 0.664475
vt 0.500000 0.664171
vt 0.516842 0.663151
vt 0.533850 0.661503
vt 0.551094 0.659373
vt 0.568609 0.656956
vt 0.586379 0.654482
vt 0.604341 0.652198
vt 0.622382 0.650338
vt 0.640360 0.649101
vt 0.658120 0.648623
vt 1.001908 0.500000
vt 1.037903 0.649597
vt 0.975403 0.666667
vt 0.926394 0.585719
vt 1.088104 0.823792
vt 0.934929 0.735316
vt 0.838104 0.648897
vt 1.088104 0.500000
vt 1.088104 0.607931
vt 1.176208 0.500000
vt 1.132156 0.661896
vt 1.037903 0.350403
vt 1.088104 0.392069
vt 1.088104 0.176208
vt 1.132156 0.338104
vt 0.926394 0.414281
vt 0.975403 0.333333
vt 0.838104 0.351103
vt 0.934929 0.264684
vt 0.892069 0.500000
vt 0.838104 0.500000
vt 0.838104 0.774597
vt 0.741279 0.735316
vt 0.838104 0.823792
vt 0.588104 0.823792
vt 0.088104 0.823792
vt 0.132156 0.661896
vt 0.200805 0.666667
vt 0.241279 0.735316
vt 0.176208 0.500000
vt 0.249814 0.585719
vt 0.338104 0.648897
vt 0.132156 0.338104
vt 0.200805 0.333333
vt 0.249814 0.414281
vt 0.088104 0.176208
vt 0.241279 0.264684
vt 0.338104 0.351103
vt 0.838104 0.225403
vt 0.838104 0.176208
vt 0.741279 0.264684
vt 0.588104 0.176208
vt 0.784139 0.500000
vt 0.749814 0.414281
vt 0.749814 0.585719
vt 0.674300 0.500000
vt 0.700805 0.666667
vt 0.638305 0.649597
vt 0.338104 0.774597
vt 0.338104 0.823792
vt 0.434929 0.735316
vt 0.284139 0.500000
vt 0.338104 0.500000
vt 0.338104 0.176208
vt 0.338104 0.225403
vt 0.434929 0.264684
vt 0.700805 0.333333
vt 0.638305 0.350403
vt 0.588104 0.607931
vt 0.588104 0.500000
vt 0.537903 0.649597
vt 0.501908 0.500000
vt 0.475403 0.666667
vt 0.426394 0.585719
vt 0.392069 0.500000
vt 0.426394 0.414281
vt 0.475403 0.333333
vt 0.537903 0.350403
vt 0.588104 0.392069
vn 0.000000 -1.000000 -0.000000
vn 0.000000 -1.000000 -0.000000
vn 0.000000 -1.000000 -0.000000
vn 0.000000 -1.000000 -0.000000
vn 0.000000 -1.000000 -0.000000
vn 0.000000 -1.000000 -0.000000
vn 0.000000 -1.000000 -0.000000
vn 0.000000 -1.000000 -0.000000
vn 0.000000 -1.000000 -0.000000
vn 0.000000 -1.000000 -0.000000
vn 0.000000 -1.000000 -0.000000
vn 0.000000 -1.000000 -0.000000
vn 0.000000 -1.000000 -0.000000
vn 0.000000 -1.000000 -0.000000
vn 0.000000 -1.000000 -0.000000
vn 0.000000 -1.000000 -0.000000
vn 0.000000 -1.000000 -0.000000
vn 0.000000 -1.000000 -0.000000
vn 0.000000 -1.000000 -0.000000
vn 0.000000 -1.000000 -0.000000
vn 0.895980 0.335093 -0.291433
vn 0.761899 0.335093 -0.554277
vn 0.760346 0.335091 -0.556407
vn 0.895568 0.335093 -0.292697
vn 0.553152 0.335093 -0.762716
vn 0.550180 0.335090 -0.764864
vn 0.290269 0.335093 -0.896358
vn 0.286152 0.335088 -0.897682
vn -0.000952 0.335093 -0.942185
vn -0.005504 0.335088 -0.942171
vn -0.291992 0.335093 -0.895798
vn -0.296114 0.335088 -0.894445
vn -0.554400 0.335093 -0.761809
vn -0.557395 0.335089 -0.759622
vn -0.762557 0.335093 -0.553371
vn -0.764158 0.335091 -0.551160
vn -0.896161 0.335093 -0.290876
vn -0.896621 0.335092 -0.289455
vn -0.942185 0.335093 0.000024
vn -0.942185 0.335093 0.000141
vn -0.896146 0.335093 0.290921
vn -0.896538 0.335092 0.289711
vn -0.762533 0.335093 0.553405
vn -0.764024 0.335091 0.551345
vn -0.554373 0.335093 0.761829
vn -0.557262 0.335090 0.759720
vn -0.291972 0.335093 0.895804
vn -0.296032 0.335088 0.894472
vn -0.000946 0.335093 0.942185
vn -0.005507 0.335088 0.942171
vn 0.290258 0.335093 0.896361
vn 0.286065 0.335088 0.897710
vn 0.553128 0.335093 0.762733
vn 0.550039 0.335089 0.764966
vn 0.761872 0.335093 0.554314
vn 0.760203 0.335091 0.556601
vn 0.895962 0.335093 0.291488
vn 0.895479 0.335092 0.292968
vn 0.942185 0.335093 0.000031
vn 0.942185 0.335093 0.000151
vn 0.897320 0.335090 -0.287283
vn 0.766816 0.335083 -0.547460
vn 0.182802 0.983145 -0.002946
vn 0.562330 0.335074 -0.755983
vn 0.302649 0.335068 -0.892263
vn 0.012380 0.335067 -0.942113
vn -0.280215 0.335071 -0.899560
vn -0.546025 0.335078 -0.767841
vn -0.758165 0.335085 -0.559378
vn -0.894924 0.335091 -0.294662
vn -0.942185 0.335093 -0.000196
vn -0.895041 0.335091 0.294306
vn -0.758357 0.335086 0.559118
vn -0.546220 0.335078 0.767702
vn -0.280341 0.335071 0.899520
vn 0.012373 0.335067 0.942113
vn 0.302769 0.335068 0.892222
vn 0.562539 0.335073 0.755828
vn 0.767035 0.335081 0.547155
vn 0.897459 0.335089 0.286849
vn 0.942185 0.335093 -0.000242
vn 0.895253 0.335092 -0.293660
vn 0.759189 0.335088 -0.557986
vn 0.548004 0.335084 -0.766427
vn 0.283182 0.335081 -0.898626
vn -0.008753 0.335080 -0.942149
vn -0.299033 0.335081 -0.893476
vn -0.559507 0.335084 -0.758070
vn -0.765280 0.335088 -0.549602
vn -0.896939 0.335092 -0.288470
vn -0.942185 0.335093 0.000189
vn -0.896829 0.335092 0.288811
vn -0.765105 0.335089 0.549846
vn -0.559336 0.335085 0.758196
vn -0.298937 0.335082 0.893508
vn -0.008771 0.335080 0.942149
vn 0.283051 0.335081 0.898667
vn 0.547805 0.335084 0.766569
vn 0.758993 0.335088 0.558253
vn 0.895132 0.335091 0.294029
vn 0.942185 0.335093 0.000204
vn 0.896371 0.335093 -0.290226
vn 0.763362 0.335092 -0.552261
vn 0.555935 0.335092 -0.760690
vn 0.294100 0.335091 -0.895109
vn 0.003254 0.335091 -0.942180
vn -0.288214 0.335091 -0.897021
vn -0.551677 0.335092 -0.763784
vn -0.761114 0.335092 -0.555355
vn -0.895750 0.335093 -0.292139
vn -0.942185 0.335093 -0.000063
vn -0.895786 0.335093 0.292028
vn -0.761169 0.335092 0.555280
vn -0.551723 0.335092 0.763751
vn -0.288228 0.335091 0.897016
vn 0.003282 0.335091 0.942180
vn 0.294164 0.335091 0.895088
vn 0.556014 0.335092 0.760633
vn 0.763431 0.335092 0.552165
vn 0.896411 0.335093 0.290105
vn 0.942185 0.335093 -0.000065
vn 0.000001 0.000000 -1.000000
vn -0.162461 0.500000 -0.850651
vn 0.187588 0.577352 -0.794655
vn 0.425326 0.309019 -0.850650
vn -0.276395 0.850648 -0.447217
vn 0.262862 0.809018 -0.525732
vn 0.723608 0.525730 -0.447214
vn -0.525732 0.000000 -0.850651
vn -0.491122 0.356827 -0.794653
vn -0.894428 0.000000 -0.447212
vn -0.688190 0.500001 -0.525732
vn -0.162461 -0.499999 -0.850651
vn -0.491122 -0.356826 -0.794654
vn -0.276395 -0.850649 -0.447216
vn -0.688190 -0.500000 -0.525733
vn 0.425325 -0.309018 -0.850650
vn 0.187588 -0.577351 -0.794655
vn 0.723608 -0.525729 -0.447215
vn 0.262862 -0.809017 -0.525733
vn 0.607061 -0.000000 -0.794655
vn 0.850651 -0.000000 -0.525731
vn 0.303528 0.934173 -0.187592
vn 0.587785 0.809017 0.000004
vn -0.000001 1.000000 -0.000001
vn 0.276395 0.850648 0.447217
vn -0.794652 0.577352 -0.187597
vn -0.587785 0.809017 -0.000004
vn -0.951056 0.309019 0.000001
vn -0.723608 0.525729 0.447214
vn -0.794653 -0.577352 -0.187596
vn -0.951056 -0.309019 0.000000
vn -0.587785 -0.809017 -0.000002
vn -0.723607 -0.525729 0.447215
vn 0.303529 -0.934173 -0.187591
vn -0.000000 -1.000000 0.000000
vn 0.587785 -0.809017 0.000003
vn 0.276395 -0.850649 0.447217
vn 0.982247 0.000000 -0.187592
vn 0.951056 -0.309019 -0.000001
vn 0.951056 0.309019 0.000000
vn 0.894428 0.000000 0.447212
vn 0.794652 0.577351 0.187598
vn 0.688190 0.500000 0.525733
vn -0.303529 0.934173 0.187591
vn -0.262863 0.809017 0.525733
vn -0.982247 -0.000000 0.187592
vn -0.850650 -0.000000 0.525732
vn -0.303529 -0.934173 0.187591
vn -0.262863 -0.809017 0.525733
vn 0.794653 -0.577351 0.187596
vn 0.688190 -0.499999 0.525733
vn 0.491123 0.356827 0.794653
vn 0.525732 -0.000000 0.850651
vn 0.162461 0.500000 0.850651
vn -0.000001 0.000000 1.000000
vn -0.187588 0.577352 0.794655
vn -0.425326 0.309019 0.850650
vn -0.607061 0.000000 0.794655
vn -0.425326 -0.309019 0.850650
vn -0.187588 -0.577351 0.794655
vn 0.162461 -0.499999 0.850651
vn 0.491122 -0.356826 0.794654
s off
g polySurface2
usemtl lambert2SG
f 1/1/1 20/2/2 19/3/3 18/4/4 17/5/5 16/6/6 15/7/7 14/8/8 13/9/9 12/10/10 11/11/11 10/12/12 9/13/13 8/14/14 7/15/15 6/16/16 5/17/17 4/18/18 3/19/19 2/20/20
s 1
f 1/21/21 2/22/22 83/108/23 82/107/24
f 2/22/22 3/24/25 84/109/26 83/108/23
f 3/24/25 4/25/27 85/110/28 84/109/26
f 4/25/27 5/26/29 86/111/30 85/110/28
f 5/26/29 6/27/31 87/112/32 86/111/30
f 6/27/31 7/28/33 88/113/34 87/112/32
f 7/28/33 8/29/35 89/114/36 88/113/34
f 8/29/35 9/30/37 90/115/38 89/114/36
f 9/30/37 10/31/39 91/116/40 90/115/38
f 10/31/39 11/32/41 92/117/42 91/116/40
f 11/32/41 12/33/43 93/118/44 92/117/42
f 12/33/43 13/34/45 94/119/46 93/118/44
f 13/34/45 14/35/47 95/120/48 94/119/46
f 14/35/47 15/36/49 96/121/50 95/120/48
f 15/36/49 16/37/51 97/122/52 96/121/50
f 16/37/51 17/38/53 98/123/54 97/122/52
f 17/38/53 18/39/55 99/124/56 98/123/54
f 18/39/55 19/40/57 100/125/58 99/124/56
f 19/40/57 20/41/59 101/126/60 100/125/58
f 20/41/59 1/42/21 82/106/24 101/126/60
f 22/44/61 23/45/62 21/23/63
f 23/45/62 24/46/64 21/23/63
f 24/46/64 25/47/65 21/23/63
f 25/47/65 26/48/66 21/23/63
f 26/48/66 27/49/67 21/23/63
f 27/49/67 28/50/68 21/23/63
f 28/50/68 29/51/69 21/23/63
f 29/51/69 30/52/70 21/23/63
f 30/52/70 31/53/71 21/23/63
f 31/53/71 32/54/72 21/23/63
f 32/54/72 33/55/73 21/23/63
f 33/55/73 34/56/74 21/23/63
f 34/56/74 35/57/75 21/23/63
f 35/57/75 36/58/76 21/23/63
f 36/58/76 37/59/77 21/23/63
f 37/59/77 38/60/78 21/23/63
f 38/60/78 39/61/79 21/23/63
f 39/61/79 40/62/80 21/23/63
f 40/62/80 41/63/81 21/23/63
f 41/63/81 22/43/61 21/23/63
usemtl lambert3SG
f 42/65/82 43/66/83 23/45/62 22/44/61
f 43/66/83 44/67/84 24/46/64 23/45/62
f 44/67/84 45/68/85 25/47/65 24/46/64
f 45/68/85 46/69/86 26/48/66 25/47/65
f 46/69/86 47/70/87 27/49/67 26/48/66
f 47/70/87 48/71/88 28/50/68 27/49/67
f 48/71/88 49/72/89 29/51/69 28/50/68
f 49/72/89 50/73/90 30/52/70 29/51/69
f 50/73/90 51/74/91 31/53/71 30/52/70
f 51/74/91 52/75/92 32/54/72 31/53/71
f 52/75/92 53/76/93 33/55/73 32/54/72
f 53/76/93 54/77/94 34/56/74 33/55/73
f 54/77/94 55/78/95 35/57/75 34/56/74
f 55/78/95 56/79/96 36/58/76 35/57/75
f 56/79/96 57/80/97 37/59/77 36/58/76
f 57/80/97 58/81/98 38/60/78 37/59/77
f 58/81/98 59/82/99 39/61/79 38/60/78
f 59/82/99 60/83/100 40/62/80 39/61/79
f 60/83/100 61/84/101 41/63/81 40/62/80
f 61/84/101 42/64/82 22/43/61 41/63/81
usemtl lambert2SG
f 62/86/102 63/87/103 43/66/83 42/65/82
f 63/87/103 64/88/104 44/67/84 43/66/83
f 64/88/104 65/89/105 45/68/85 44/67/84
f 65/89/105 66/90/106 46/69/86 45/68/85
f 66/90/106 67/91/107 47/70/87 46/69/86
f 67/91/107 68/92/108 48/71/88 47/70/87
f 68/92/108 69/93/109 49/72/89 48/71/88
f 69/93/109 70/94/110 50/73/90 49/72/89
f 70/94/110 71/95/111 51/74/91 50/73/90
f 71/95/111 72/96/112 52/75/92 51/74/91
f 72/96/112 73/97/113 53/76/93 52/75/92
f 73/97/113 74/98/114 54/77/94 53/76/93
f 74/98/114 75/99/115 55/78/95 54/77/94
f 75/99/115 76/100/116 56/79/96 55/78/95
f 76/100/116 77/101/117 57/80/97 56/79/96
f 77/101/117 78/102/118 58/81/98 57/80/97
f 78/102/118 79/103/119 59/82/99 58/81/98
f 79/103/119 80/104/120 60/83/100 59/82/99
f 80/104/120 81/105/121 61/84/101 60/83/100
f 81/105/121 62/85/102 42/64/82 61/84/101
usemtl lambert3SG
f 82/107/24 83/108/23 63/87/103 62/86/102
f 83/108/23 84/109/26 64/88/104 63/87/103
f 84/109/26 85/110/28 65/89/105 64/88/104
f 85/110/28 86/111/30 66/90/106 65/89/105
f 86/111/30 87/112/32 67/91/107 66/90/106
f 87/112/32 88/113/34 68/92/108 67/91/107
f 88/113/34 89/114/36 69/93/109 68/92/108
f 89/114/36 90/115/38 70/94/110 69/93/109
f 90/115/38 91/116/40 71/95/111 70/94/110
f 91/116/40 92/117/42 72/96/112 71/95/111
f 92/117/42 93/118/44 73/97/113 72/96/112
f 93/118/44 94/119/46 74/98/114 73/97/113
f 94/119/46 95/120/48 75/99/115 74/98/114
f 95/120/48 96/121/50 76/100/116 75/99/115
f 96/121/50 97/122/52 77/101/117 76/100/116
f 97/122/52 98/123/54 78/102/118 77/101/117
f 98/123/54 99/124/56 79/103/119 78/102/118
f 99/124/56 100/125/58 80/104/120 79/103/119
f 100/125/58 101/126/60 81/105/121 80/104/120
f 101/126/60 82/106/24 62/85/102 81/105/121
s 3
f 102/127/122 134/128/123 144/129/124 136/130/125
f 104/131/126 135/132/127 144/129/124 134/128/123
f 103/133/128 136/130/125 144/129/124 135/132/127
f 102/127/122 137/134/129 145/135/130 134/128/123
f 105/136/131 138/137/132 145/135/130 137/134/129
f 104/131/126 134/128/123 145/135/130 138/137/132
f 102/127/122 139/138/133 146/139/134 137/134/129
f 106/140/135 140/141/136 146/139/134 139/138/133
f 105/136/131 137/134/129 146/139/134 140/141/136
f 102/127/122 141/142/137 147/143/138 139/138/133
f 107/144/139 142/145/140 147/143/138 141/142/137
f 106/140/135 139/138/133 147/143/138 142/145/140
f 102/127/122 136/130/125 148/146/141 141/142/137
f 103/133/128 143/147/142 148/146/141 136/130/125
f 107/144/139 141/142/137 148/146/141 143/147/142
f 103/133/128 135/132/127 149/148/143 115/149/144
f 104/131/126 114/150/145 149/148/143 135/132/127
f 109/151/146 115/149/144 149/148/143 114/150/145
f 104/152/126 138/153/132 150/154/147 117/155/148
f 105/156/131 116/157/149 150/154/147 138/153/132
f 110/158/150 117/155/148 150/154/147 116/157/149
f 105/156/131 140/159/136 151/160/151 119/161/152
f 106/162/135 118/163/153 151/160/151 140/159/136
f 111/164/154 119/161/152 151/160/151 118/163/153
f 106/140/135 142/145/140 152/165/155 121/166/156
f 107/144/139 120/167/157 152/165/155 142/145/140
f 112/168/158 121/166/156 152/165/155 120/167/157
f 107/144/139 143/147/142 153/169/159 123/170/160
f 103/133/128 122/171/161 153/169/159 143/147/142
f 108/172/162 123/170/160 153/169/159 122/171/161
f 103/133/128 115/149/144 154/173/163 122/171/161
f 109/151/146 124/174/164 154/173/163 115/149/144
f 108/172/162 122/171/161 154/173/163 124/174/164
f 104/152/126 117/155/148 155/175/165 114/176/145
f 110/158/150 125/177/166 155/175/165 117/155/148
f 109/151/146 114/176/145 155/175/165 125/177/166
f 105/156/131 119/161/152 156/178/167 116/157/149
f 111/164/154 126/179/168 156/178/167 119/161/152
f 110/158/150 116/157/149 156/178/167 126/179/168
f 106/162/135 121/180/156 157/181/169 118/163/153
f 112/168/158 127/182/170 157/181/169 121/180/156
f 111/164/154 118/163/153 157/181/169 127/182/170
f 107/144/139 123/170/160 158/183/171 120/167/157
f 108/172/162 128/184/172 158/183/171 123/170/160
f 112/168/158 120/167/157 158/183/171 128/184/172
f 108/172/162 124/174/164 159/185/173 130/186/174
f 109/151/146 129/187/175 159/185/173 124/174/164
f 113/188/176 130/186/174 159/185/173 129/187/175
f 109/151/146 125/177/166 160/189/177 129/187/175
f 110/158/150 131/190/178 160/189/177 125/177/166
f 113/188/176 129/187/175 160/189/177 131/190/178
f 110/158/150 126/179/168 161/191/179 131/190/178
f 111/164/154 132/192/180 161/191/179 126/179/168
f 113/188/176 131/190/178 161/191/179 132/192/180
f 111/164/154 127/182/170 162/193/181 132/192/180
f 112/168/158 133/194/182 162/193/181 127/182/170
f 113/188/176 132/192/180 162/193/181 133/194/182
f 112/168/158 128/184/172 163/195/183 133/194/182
f 108/172/162 130/186/174 163/195/183 128/184/172
f 113/188/176 133/194/182 163/195/183 130/186/174
